<svg preserveAspectRatio="none" width="100%" height="100%" overflow="visible" style="display: block;" viewBox="0 0 34.7999 34.7999" fill="none" xmlns="http://www.w3.org/2000/svg">
<g id="Button">
<path id="Icon" d="M17.4 26.7999C17.1653 26.7999 16.9384 26.7547 16.7192 26.6643C16.5 26.5739 16.3 26.4435 16.1192 26.273L8.52692 18.6807C8.35641 18.4999 8.22596 18.2999 8.13558 18.0807C8.04519 17.8615 8 17.6346 8 17.4C8 17.1653 8.04519 16.9359 8.13558 16.7115C8.22596 16.4871 8.35641 16.2897 8.52692 16.1192L16.1192 8.52692C16.3 8.34615 16.5 8.21314 16.7192 8.12788C16.9384 8.04263 17.1653 8 17.4 8C17.6346 8 17.8641 8.04263 18.0884 8.12788C18.3128 8.21314 18.5102 8.34615 18.6807 8.52692L26.273 16.1192C26.4538 16.2897 26.5868 16.4871 26.672 16.7115C26.7573 16.9359 26.7999 17.1653 26.7999 17.4C26.7999 17.6346 26.7573 17.8615 26.672 18.0807C26.5868 18.2999 26.4538 18.4999 26.273 18.6807L18.6807 26.273C18.5102 26.4435 18.3128 26.5739 18.0884 26.6643C17.8641 26.7547 17.6346 26.7999 17.4 26.7999V26.7999M17.6211 25.2038L25.2038 17.6211C25.2551 17.5698 25.2807 17.4961 25.2807 17.4C25.2807 17.3038 25.2551 17.2301 25.2038 17.1788L17.6211 9.59612C17.5698 9.54484 17.4961 9.5192 17.4 9.5192C17.3038 9.5192 17.2301 9.54484 17.1788 9.59612L9.59612 17.1788C9.54484 17.2301 9.5192 17.3038 9.5192 17.4C9.5192 17.4961 9.54484 17.5698 9.59612 17.6211L17.1788 25.2038C17.2301 25.2551 17.3038 25.2807 17.4 25.2807C17.4961 25.2807 17.5698 25.2551 17.6211 25.2038V25.2038M16.65 18.4865H18.1499V12.8711H16.65V18.4865V18.4865M17.4 21.1019C17.6256 21.1019 17.8166 21.0237 17.973 20.8672C18.1294 20.7108 18.2076 20.5198 18.2076 20.2942C18.2076 20.0685 18.1294 19.8775 17.973 19.7211C17.8166 19.5647 17.6256 19.4865 17.4 19.4865C17.1743 19.4865 16.9833 19.5647 16.8269 19.7211C16.6705 19.8775 16.5923 20.0685 16.5923 20.2942C16.5923 20.5198 16.6705 20.7108 16.8269 20.8672C16.9833 21.0237 17.1743 21.1019 17.4 21.1019V21.1019M17.4 17.4V17.4V17.4V17.4V17.4V17.4V17.4V17.4V17.4V17.4V17.4V17.4V17.4V17.4" fill="var(--fill-0, #081B4D)"/>
</g>
</svg>
